<?xml version="1.0" standalone="no"?>
<!DOCTYPE svg PUBLIC "-//W3C//DTD SVG 20010904//EN"
 "http://www.w3.org/TR/2001/REC-SVG-20010904/DTD/svg10.dtd">
<svg version="1.0" xmlns="http://www.w3.org/2000/svg"
 width="2048.000000pt" height="2048.000000pt" viewBox="0 0 2048.000000 2048.000000"
 preserveAspectRatio="xMidYMid meet">

<g transform="translate(0.000000,2048.000000) scale(0.100000,-0.100000)"
fill="#000000" stroke="none">
<path d="M9875 18990 c-462 -24 -993 -97 -1490 -205 -464 -100 -1039 -282
-1488 -472 -109 -45 -200 -83 -203 -83 -15 0 -449 -214 -614 -303 -1284 -688
-2383 -1678 -3201 -2882 -323 -474 -630 -1037 -842 -1540 -27 -65 -24 -79 19
-88 22 -4 28 1 41 32 154 375 418 881 656 1261 953 1520 2326 2715 3952 3437
273 122 333 146 591 238 559 201 1029 323 1632 425 670 112 1457 141 2207 80
568 -47 1234 -177 1830 -357 283 -85 632 -213 910 -333 880 -380 1671 -878
2373 -1493 l114 -100 25 26 c14 14 22 30 19 36 -4 6 -52 50 -108 98 -615 535
-1275 972 -1998 1325 -183 89 -234 112 -497 222 -847 356 -1837 592 -2768 662
-242 18 -925 26 -1160 14z"/>
<path d="M9890 18684 c-514 -34 -781 -68 -1225 -154 -865 -170 -1668 -457
-2456 -880 -970 -520 -1841 -1232 -2560 -2090 -496 -593 -937 -1294 -1249
-1989 l-83 -184 23 -19 c13 -10 27 -17 33 -15 5 1 49 88 96 192 382 836 854
1553 1472 2240 140 156 508 519 674 666 1414 1247 3153 1985 5055 2146 260 22
1036 25 1295 5 1396 -107 2697 -522 3875 -1235 460 -278 999 -681 1338 -1001
66 -62 65 -61 92 -14 11 19 -53 84 -235 239 -600 512 -1217 913 -1930 1255
-175 84 -499 224 -640 276 -706 261 -1339 419 -2040 507 -351 45 -494 53 -995
56 -267 1 -510 1 -540 -1z"/>
<path d="M9837 17990 c-284 -86 -519 -159 -520 -161 -4 -5 579 -1938 586
-1945 5 -5 1066 312 1074 320 5 4 -73 265 -81 273 -3 3 -179 -47 -392 -111
-212 -64 -387 -116 -388 -114 -1 2 -44 143 -96 313 -51 171 -94 315 -96 320
-3 6 166 61 376 124 232 69 379 118 377 125 -2 6 -21 68 -42 139 -21 70 -42
127 -47 127 -4 0 -175 -50 -379 -111 -203 -61 -371 -110 -373 -108 -12 17
-135 453 -129 459 4 3 168 54 364 113 195 58 367 110 381 116 l26 10 -41 135
c-36 119 -43 136 -61 135 -12 -1 -254 -72 -539 -159z"/>
<path d="M8690 17637 c-74 -22 -136 -42 -138 -43 -2 -1 48 -174 111 -383 l114
-381 -71 -21 c-39 -12 -226 -68 -415 -125 -190 -57 -346 -102 -348 -100 -2 2
-54 169 -114 372 -61 203 -114 372 -118 376 -6 7 -288 -74 -295 -84 -3 -4 581
-1938 587 -1944 5 -6 278 75 289 85 4 3 -54 208 -128 454 -75 247 -134 451
-131 453 10 10 823 251 828 245 3 -3 66 -204 138 -446 73 -242 136 -443 139
-447 9 -9 285 75 289 88 2 6 -125 438 -282 960 -157 522 -288 957 -291 967 -7
22 -6 22 -164 -26z"/>
<path d="M17180 17517 c0 -21 -498 -3662 -505 -3694 -4 -19 -219 227 -1222
1397 -669 781 -1218 1418 -1219 1417 -4 -4 474 -4799 479 -4803 5 -5 640 185
650 195 5 5 -62 608 -148 1341 -86 733 -154 1334 -153 1335 2 2 460 -530 1018
-1181 768 -896 1017 -1179 1022 -1166 3 9 100 708 213 1552 114 844 208 1536
210 1538 1 1 264 -539 585 -1200 320 -662 585 -1206 588 -1210 9 -9 652 184
652 195 0 11 -2149 4278 -2161 4292 -6 5 -9 2 -9 -8z"/>
<path d="M6557 17000 c-323 -97 -590 -180 -593 -182 -4 -4 73 -268 81 -276 1
-2 101 27 221 63 120 36 221 62 225 58 3 -5 118 -379 254 -833 137 -454 249
-826 249 -827 4 -6 290 85 293 93 2 5 -107 375 -241 821 -135 446 -246 819
-248 829 -3 15 30 28 217 85 121 36 219 70 219 75 -5 27 -77 260 -82 265 -4 4
-272 -73 -595 -171z"/>
<path d="M10955 15578 c-8 -26 -734 -5092 -730 -5096 4 -4 676 195 682 202 2
1 39 263 83 581 44 319 83 582 88 585 13 12 1784 541 1798 538 7 -2 180 -201
384 -443 204 -242 374 -439 378 -439 4 1 161 48 349 104 302 91 341 105 330
119 -51 65 -3348 3861 -3353 3861 -3 0 -6 -6 -9 -12z m959 -2042 c284 -335
513 -613 509 -617 -13 -11 -1253 -382 -1259 -376 -5 5 197 1514 212 1590 3 16
9 25 14 20 4 -4 240 -282 524 -617z"/>
<path d="M7425 14247 c-638 -192 -1161 -350 -1162 -351 -4 -3 1266 -4219 1272
-4225 5 -4 2316 689 2327 698 5 5 -165 587 -175 597 -2 2 -383 -111 -848 -250
-464 -140 -844 -254 -845 -253 -10 10 -422 1403 -416 1408 4 3 372 116 817
249 446 134 812 245 814 246 2 2 -37 138 -86 301 -74 244 -93 297 -107 295 -9
-2 -374 -111 -811 -242 -437 -132 -800 -240 -808 -240 -9 0 -63 165 -161 493
-82 270 -150 497 -152 502 -3 7 349 117 841 265 465 140 845 260 845 266 0 19
-170 578 -178 585 -4 3 -529 -151 -1167 -344z"/>
<path d="M4390 13333 c-701 -212 -1276 -386 -1277 -387 -3 -3 175 -587 181
-593 3 -4 217 57 475 135 258 78 476 142 484 142 10 0 170 -519 556 -1802 299
-992 546 -1806 550 -1810 10 -11 640 183 635 196 -27 77 -1083 3603 -1081
3610 2 5 216 74 476 152 260 79 475 145 478 148 3 2 -35 138 -84 300 -65 220
-92 296 -103 295 -8 -1 -589 -174 -1290 -386z"/>
<path d="M1625 12574 c-253 -39 -524 -159 -722 -319 -180 -144 -338 -375 -406
-590 -76 -242 -59 -521 46 -764 145 -333 468 -564 910 -650 148 -28 146 -28
459 -61 421 -43 541 -67 693 -139 246 -116 379 -327 392 -622 9 -188 -38 -338
-152 -481 -187 -237 -590 -338 -868 -219 -114 49 -214 134 -290 245 -37 55
-147 260 -159 296 -3 11 -78 -26 -299 -149 -162 -90 -298 -167 -303 -172 -5
-4 15 -51 43 -105 242 -452 582 -718 1010 -789 134 -23 372 -16 510 14 543
117 940 451 1105 928 123 358 89 754 -97 1117 -169 331 -443 530 -878 636
-131 32 -311 56 -716 95 -338 33 -458 63 -583 147 -70 47 -129 119 -160 198
-28 69 -38 206 -20 281 29 126 138 276 258 356 162 107 416 160 575 118 103
-27 231 -104 344 -207 l44 -42 23 25 c100 103 396 432 396 439 0 13 -107 105
-206 176 -286 205 -621 289 -949 238z"/>
<path d="M18595 12345 c-49 -18 -169 -61 -265 -95 -190 -66 -237 -93 -279
-154 -42 -64 -51 -92 -51 -166 0 -71 16 -122 185 -600 18 -52 54 -156 80 -230
60 -172 95 -221 190 -266 85 -40 154 -34 341 31 87 30 159 54 160 52 2 -2 6
-51 10 -110 l7 -107 -365 0 c-406 0 -422 -2 -497 -66 -52 -45 -86 -103 -101
-174 -8 -39 -11 -194 -8 -530 3 -471 3 -475 26 -526 29 -64 92 -126 157 -156
49 -22 59 -23 419 -26 l369 -3 -7 -101 c-4 -56 -9 -105 -12 -110 -3 -4 -731
-8 -1617 -8 -1713 -1 -1668 0 -1762 -48 -51 -26 -114 -85 -148 -138 -60 -96
-58 -35 -55 -1365 l3 -1214 27 -57 c46 -100 124 -170 231 -209 50 -18 96 -19
1220 -19 l1169 0 -41 -72 c-34 -61 -44 -72 -63 -70 -69 10 -91 5 -120 -26 -21
-24 -28 -42 -28 -73 l0 -40 -82 3 -83 3 -3 45 c-6 77 -68 118 -131 86 -38 -20
-44 -31 -51 -86 l-5 -45 -82 -3 -83 -3 0 41 c0 52 -13 76 -51 96 -63 32 -125
-9 -131 -86 l-3 -45 -82 -3 -83 -3 0 33 c0 67 -62 127 -116 114 -42 -11 -65
-39 -72 -91 l-7 -50 -80 0 -80 0 -7 49 c-9 64 -35 91 -89 91 -56 0 -99 -46
-99 -105 l0 -40 -80 0 -80 0 0 36 c0 82 -73 134 -139 100 -35 -19 -51 -50 -51
-102 0 -34 0 -34 -48 -34 -57 0 -107 -13 -128 -34 -21 -21 -29 -78 -15 -105
29 -54 -19 -51 995 -51 763 0 936 -2 936 -13 0 -16 -181 -298 -303 -472 -472
-673 -1060 -1297 -1702 -1806 -657 -521 -1360 -931 -2144 -1249 l-215 -87 -50
29 c-68 39 -86 62 -86 110 0 61 27 80 158 112 61 16 116 34 122 41 10 12 15
54 12 103 -3 30 -25 39 -160 61 -63 10 -120 25 -127 32 -8 8 -18 34 -24 58 -9
44 -9 45 28 80 21 20 68 59 104 86 37 28 70 60 73 72 7 25 -23 91 -48 107 -12
7 -52 2 -142 -19 -118 -26 -126 -27 -150 -11 -34 22 -59 71 -50 99 3 12 21 47
39 77 90 150 92 163 40 209 -20 17 -43 31 -53 31 -9 0 -48 -23 -87 -51 -112
-79 -138 -94 -165 -90 -32 4 -77 36 -85 61 -3 11 1 74 11 140 16 113 16 121 0
139 -19 21 -90 43 -112 34 -7 -2 -37 -43 -66 -91 -29 -47 -66 -99 -81 -115
-24 -26 -32 -28 -65 -22 -57 10 -77 28 -90 81 -7 27 -15 58 -18 69 -3 11 -6
25 -8 30 -21 75 -30 96 -46 105 -29 15 -98 9 -115 -11 -9 -9 -22 -58 -30 -110
-23 -141 -25 -148 -51 -165 -33 -22 -85 -28 -108 -11 -10 7 -48 54 -85 103
-74 99 -98 111 -159 78 -40 -22 -48 -51 -33 -118 47 -195 46 -198 -16 -240
-34 -24 -38 -24 -71 -10 -20 8 -58 29 -86 46 -85 52 -116 68 -132 68 -22 0
-84 -69 -84 -92 0 -10 24 -53 53 -94 100 -144 98 -140 71 -198 -27 -56 -35
-57 -243 -28 -61 9 -66 8 -87 -15 -23 -25 -38 -80 -29 -105 4 -9 51 -43 105
-77 55 -34 106 -71 113 -82 26 -36 -7 -134 -46 -137 -30 -2 -213 -55 -224 -64
-8 -6 -13 -33 -13 -64 0 -69 13 -77 150 -98 130 -20 145 -28 158 -78 17 -66 4
-85 -136 -187 -33 -25 -63 -54 -66 -65 -7 -27 30 -103 54 -111 11 -3 36 -2 57
4 21 6 49 12 63 15 14 3 36 8 50 11 93 23 125 15 154 -40 22 -40 18 -62 -23
-126 l-29 -46 -108 -11 c-362 -39 -505 -46 -944 -46 -343 0 -496 4 -665 17
-121 10 -224 22 -228 27 -5 4 -4 17 2 28 20 38 13 121 -14 168 -37 62 -80 85
-175 91 -86 6 -86 6 -122 73 -53 96 -97 178 -143 262 l-46 88 535 0 c396 0
548 3 582 12 56 15 129 76 149 125 13 31 15 211 15 1293 0 1382 4 1294 -62
1356 -73 70 76 64 -1726 64 l-1628 0 -46 -29 c-49 -31 -79 -68 -96 -120 -16
-46 -17 -2506 -1 -2548 21 -56 61 -102 112 -128 l51 -25 563 0 c444 0 563 -3
563 -12 0 -7 -9 -24 -20 -38 -11 -14 -20 -28 -20 -32 0 -4 -15 -33 -34 -65
-41 -72 -96 -171 -110 -200 -6 -13 -14 -23 -17 -23 -22 0 -454 154 -639 228
-879 352 -1683 836 -2400 1445 -149 127 -410 368 -410 378 0 6 245 8 588 7
530 -3 593 -1 649 14 89 25 159 63 218 119 181 171 181 457 0 724 -26 39 -206
313 -400 610 -194 297 -397 609 -452 693 l-100 154 -9 416 c-5 229 -8 453 -6
497 4 130 33 202 124 308 44 52 44 99 0 138 l-33 29 -635 -2 -636 -3 -24 -28
c-39 -46 -33 -85 26 -154 69 -80 99 -147 110 -246 6 -45 10 -279 10 -521 l0
-439 -302 -453 c-237 -355 -305 -451 -315 -441 -23 23 -223 347 -311 504 -264
469 -520 1033 -659 1453 -75 229 -71 220 -109 220 -19 0 -34 -5 -34 -11 0 -20
71 -240 116 -359 265 -706 506 -1185 917 -1820 107 -165 186 -275 364 -509
700 -918 1609 -1708 2618 -2278 515 -291 1019 -514 1580 -697 359 -118 403
-130 695 -199 529 -125 1000 -194 1555 -227 218 -13 742 -13 955 0 395 24 854
73 1005 106 61 14 220 47 355 74 373 76 397 82 740 187 142 44 464 159 527
188 17 9 98 42 180 74 513 204 1089 511 1588 845 364 243 816 605 1115 892 52
50 108 102 123 115 45 38 385 402 498 534 276 320 497 617 725 970 187 292
188 292 257 420 36 66 103 190 149 275 46 85 90 171 98 190 7 19 33 74 56 121
76 152 223 508 309 744 281 776 443 1541 507 2400 16 221 16 938 0 1160 -42
568 -134 1140 -259 1605 -32 120 -81 230 -102 229 -9 -1 -56 -16 -106 -34z
m153 -266 c35 -145 73 -322 69 -325 -1 -1 -61 -23 -132 -47 -281 -96 -280 -96
-291 -154 -7 -40 10 -88 40 -108 35 -25 85 -17 254 41 91 31 167 53 172 48 7
-8 50 -250 66 -369 l6 -50 -164 -57 c-91 -32 -179 -58 -196 -58 -18 0 -41 9
-56 23 -26 23 -36 49 -225 597 -45 129 -86 245 -91 258 -16 38 -11 79 13 107
17 20 78 46 257 110 129 45 239 82 245 81 5 -2 20 -45 33 -97z m246 -1661 c3
-51 8 -155 11 -230 l6 -138 -321 0 c-364 0 -380 -3 -406 -66 -20 -47 -11 -87
28 -119 l30 -25 334 0 334 0 -5 -117 c-3 -65 -8 -160 -11 -210 l-6 -93 -363 0
-364 0 -28 24 -28 24 0 490 0 490 24 26 c13 14 33 27 45 29 11 2 177 5 368 6
l346 1 6 -92z m-68 -1621 c12 -32 -123 -733 -188 -977 -90 -340 -180 -622
-310 -967 l-19 -53 -1112 0 -1111 0 -23 -22 c-26 -25 -29 -64 -7 -93 15 -20
30 -20 1104 -25 l1089 -5 -78 -180 c-43 -99 -96 -217 -119 -262 l-42 -83
-1176 0 c-853 0 -1188 3 -1222 12 -62 15 -96 40 -127 92 -24 42 -25 48 -25
234 l0 192 111 0 c61 0 119 5 130 11 28 15 42 55 27 82 -22 41 -39 46 -155 47
l-113 0 0 930 c0 904 1 932 20 969 33 65 76 94 155 104 17 2 740 5 1608 6
1289 1 1579 -1 1583 -12z m-14236 -1532 c0 -3 -7 -22 -16 -43 -25 -61 -44
-168 -44 -253 l0 -79 -119 0 c-135 0 -176 -10 -196 -51 -22 -41 -18 -65 14
-101 l29 -33 135 -3 134 -4 7 -45 c3 -25 6 -112 6 -193 l0 -148 -137 -4 c-99
-2 -144 -7 -160 -18 -48 -31 -54 -108 -11 -146 17 -16 41 -19 169 -22 l149 -3
0 -47 c0 -55 9 -74 119 -242 l81 -125 -156 -5 c-156 -5 -156 -5 -180 -33 -33
-38 -31 -79 5 -119 l29 -33 184 0 c100 0 194 3 208 7 24 7 31 -2 121 -140 l96
-147 -149 -5 -150 -5 -25 -29 c-32 -37 -26 -90 12 -123 25 -22 33 -23 230 -23
l203 0 91 -139 c50 -77 91 -142 91 -145 0 -4 -60 -6 -133 -6 -149 0 -168 -6
-187 -64 -9 -28 -8 -40 5 -65 8 -17 24 -35 34 -41 12 -6 100 -10 214 -10 l195
0 40 -62 c144 -221 142 -419 -3 -520 -83 -57 -97 -58 -826 -58 l-668 0 -153
168 c-165 181 -301 340 -444 522 -102 129 -252 334 -260 354 -3 8 142 233 321
502 180 269 333 501 342 517 13 26 14 96 8 536 -6 533 -12 607 -56 694 l-19
37 410 0 c225 0 410 -2 410 -5z m5416 -2500 l24 -30 0 -1057 0 -1058 -220 0
-220 0 0 277 0 277 105 106 105 107 0 86 c0 91 1 94 57 127 40 24 78 81 94
142 33 121 -80 258 -212 258 -69 0 -156 -56 -190 -123 -17 -32 -20 -54 -17
-108 3 -58 8 -74 34 -106 17 -21 50 -51 72 -66 42 -28 42 -28 42 -92 l0 -64
-107 -108 -108 -108 -3 -302 -3 -303 -210 0 -209 0 0 235 0 235 23 9 c108 41
163 192 109 298 -35 67 -120 122 -190 123 -127 1 -246 -148 -212 -264 19 -64
47 -103 101 -137 l49 -32 0 -234 0 -233 -255 0 -255 0 0 303 0 302 35 23 c19
12 37 22 40 22 2 0 29 16 59 35 30 19 59 35 64 35 5 0 21 12 36 26 25 26 26
30 26 149 l0 123 44 26 c68 40 106 107 106 187 0 123 -88 210 -212 210 -75 0
-113 -17 -162 -71 -88 -98 -66 -241 49 -320 l45 -31 0 -97 0 -98 -92 -54 c-51
-30 -100 -58 -108 -61 -8 -4 -24 -17 -35 -29 -19 -21 -20 -38 -23 -351 l-3
-329 -139 0 -140 0 0 356 0 355 -56 60 -57 59 15 57 c54 218 -186 362 -356
214 -28 -24 -66 -111 -66 -152 0 -72 59 -163 126 -195 37 -18 113 -23 158 -11
25 7 33 3 72 -38 l44 -45 0 -330 0 -330 -260 0 -260 0 0 282 0 281 -111 112
-110 112 3 64 c3 62 4 63 42 84 125 65 146 251 39 345 -41 36 -64 47 -115 55
-61 9 -121 -9 -168 -51 -50 -46 -70 -90 -70 -159 0 -85 39 -152 110 -192 l35
-20 3 -94 2 -94 105 -101 105 -101 0 -261 0 -262 -265 0 -265 0 0 1045 c0
1132 -2 1081 52 1119 20 15 183 16 1626 14 l1604 -3 24 -30z m-1357 -840 c84
-43 52 -165 -43 -165 -55 0 -86 30 -86 84 1 78 62 116 129 81z m1146 -89 c35
-35 41 -69 18 -108 -36 -62 -132 -57 -160 9 -12 29 -12 41 -2 65 25 61 100 78
144 34z m-2648 -28 c35 -33 32 -92 -8 -129 -42 -39 -91 -35 -126 10 -21 27
-16 92 9 118 29 31 92 32 125 1z m614 -174 c36 -38 33 -99 -6 -130 -35 -28
-66 -30 -102 -7 -78 51 -49 163 42 163 32 0 47 -6 66 -26z m1283 -273 c22 -24
31 -83 17 -110 -18 -33 -79 -54 -114 -40 -41 17 -61 52 -54 95 9 55 32 74 87
74 33 0 52 -5 64 -19z m984 -965 c3 -110 -6 -145 -46 -176 -24 -20 -49 -20
-1608 -20 -1004 0 -1592 4 -1608 10 -49 18 -66 64 -66 176 0 55 3 104 7 107 3
4 752 6 1662 5 l1656 -3 3 -99z m2248 43 c160 -60 238 -258 166 -421 -37 -84
-134 -163 -216 -175 -17 -2 -40 -6 -52 -8 -27 -4 -132 18 -162 34 -37 20 -103
83 -128 122 -58 92 -54 239 8 329 39 56 53 69 101 99 86 53 177 59 283 20z
m-3522 -414 c12 -22 41 -74 63 -115 22 -41 59 -109 82 -151 22 -42 41 -82 41
-88 0 -8 -154 -11 -565 -11 -333 0 -565 4 -565 9 0 5 17 40 39 78 21 37 53 95
71 128 49 90 81 147 97 173 l14 22 350 -2 351 -3 22 -40z m485 -519 c29 -30
23 -68 -15 -92 -39 -26 -243 -14 -495 30 -193 33 -379 73 -388 82 -2 2 194 4
436 4 l440 0 22 -24z"/>
<path d="M18677 10359 c-90 -70 -26 -216 86 -195 99 19 119 159 30 205 -34 17
-88 13 -116 -10z"/>
<path d="M18684 9721 c-88 -54 -49 -201 53 -201 69 0 112 41 113 109 0 36 -6
49 -34 77 -40 40 -83 45 -132 15z"/>
<path d="M17170 8725 c-200 -37 -293 -96 -355 -223 -24 -49 -28 -68 -28 -147
0 -85 3 -95 42 -177 47 -100 53 -154 21 -205 -20 -33 -104 -83 -139 -83 -20 0
-39 -7 -111 -38 -49 -21 -132 -108 -159 -167 -29 -61 -34 -184 -11 -255 61
-188 233 -382 426 -479 159 -79 291 -107 464 -97 494 27 890 454 890 959 l0
112 130 62 c119 56 132 65 146 99 22 51 11 107 -28 139 -47 40 -69 40 -193 5
-63 -18 -120 -30 -127 -27 -7 3 -24 27 -38 53 -83 164 -219 296 -395 386 -161
83 -367 115 -535 83z m335 -159 c141 -37 306 -144 392 -257 36 -47 103 -159
103 -172 0 -2 -33 -14 -72 -26 -40 -12 -83 -26 -96 -32 -13 -5 -34 -9 -48 -9
l-25 0 31 38 c82 103 27 268 -102 302 -87 24 -168 -8 -218 -87 -74 -117 1
-273 138 -290 37 -4 52 -10 52 -21 0 -11 -7 -13 -28 -9 -33 7 -57 1 -216 -47
-107 -33 -122 -36 -155 -24 -20 6 -67 12 -106 12 -99 0 -143 -27 -223 -135
-51 -70 -83 -96 -136 -109 -60 -15 -99 -35 -139 -70 -59 -51 -77 -121 -55
-215 3 -11 3 -14 1 -7 -3 6 -8 12 -12 12 -14 0 -33 71 -33 125 -1 41 6 65 26
99 34 58 69 82 147 102 190 49 279 147 279 309 0 42 -4 83 -9 93 -57 115 -71
156 -71 208 0 134 82 200 285 228 57 8 230 -3 290 -18z m190 -270 c25 -20 30
-31 30 -69 0 -60 -32 -97 -85 -97 -96 0 -132 111 -56 172 30 25 76 22 111 -6z
m525 -229 c-36 -18 -86 -41 -110 -51 -25 -10 -78 -34 -118 -53 -41 -18 -75
-33 -77 -33 -2 0 -36 -15 -77 -34 -40 -18 -118 -54 -173 -79 -55 -24 -126 -56
-157 -71 -100 -45 -101 -45 -123 16 -11 29 -20 57 -20 62 0 8 18 15 170 61 50
16 99 36 111 47 11 10 28 16 36 13 19 -7 85 9 248 60 47 14 117 35 155 46 39
11 90 26 115 33 78 23 87 16 20 -17z m-150 -249 c0 -35 -7 -97 -14 -139 -63
-324 -271 -560 -577 -653 -115 -35 -304 -37 -413 -5 -78 23 -194 78 -242 114
-86 66 -227 235 -195 235 5 0 11 -4 13 -9 2 -5 21 -20 42 -35 31 -21 50 -26
101 -26 36 0 75 7 93 15 37 19 81 69 94 107 11 32 18 33 70 15 52 -18 53 -21
15 -50 -67 -51 -96 -161 -61 -230 41 -80 97 -117 182 -117 76 0 137 36 170
102 30 62 28 118 -5 118 -10 0 -12 6 -7 23 4 12 7 31 6 42 -1 22 -67 85 -89
85 -22 0 -14 19 15 34 34 18 90 70 126 118 21 28 50 47 132 82 57 25 111 46
119 46 7 0 20 -8 27 -19 7 -10 31 -30 52 -45 54 -36 149 -37 205 -2 70 44 110
131 91 197 -8 28 -7 36 7 47 34 25 43 15 43 -50z m-827 10 c21 -17 79 -177 72
-200 -4 -9 -29 -38 -57 -63 -48 -43 -53 -45 -110 -45 -51 0 -76 7 -159 47 -55
25 -99 48 -99 50 0 3 24 28 53 57 28 28 75 77 102 109 l50 57 66 0 c37 0 72
-5 82 -12z m677 -49 c0 -45 -39 -79 -91 -79 -39 0 -79 21 -79 40 0 4 30 20 68
36 37 15 71 31 76 35 15 13 26 0 26 -32z m-1097 -237 c45 -27 57 -39 57 -59 0
-35 -16 -61 -50 -78 -40 -21 -58 -19 -96 10 -40 31 -51 72 -30 114 15 28 44
53 56 48 3 -1 31 -17 63 -35z m429 -251 l33 -29 -15 -43 c-14 -42 -65 -89 -95
-89 -23 0 -80 46 -89 71 -33 96 87 161 166 90z"/>
<path d="M17104 8526 c-43 -19 -90 -67 -109 -111 -20 -50 -19 -59 9 -92 18
-21 21 -31 13 -44 -29 -47 70 -129 155 -129 56 0 130 31 158 67 10 13 26 47
36 75 15 48 16 55 0 103 -36 115 -158 176 -262 131z m143 -118 c17 -16 23 -33
23 -64 0 -35 -5 -47 -31 -68 -40 -34 -75 -33 -131 4 -45 30 -46 31 -32 58 8
15 14 32 14 38 0 12 38 49 60 57 25 10 73 -2 97 -25z"/>
<path d="M17544 7525 c-41 -18 -100 -87 -108 -127 -20 -101 20 -185 109 -227
72 -34 140 -24 208 29 70 55 89 172 41 247 -41 62 -96 93 -164 92 -30 0 -69
-7 -86 -14z m156 -122 c27 -34 25 -81 -3 -117 -19 -24 -31 -29 -67 -29 -36 0
-48 6 -72 32 -47 52 -31 118 35 146 38 16 79 4 107 -32z"/>
<path d="M15912 6780 c-28 -26 -29 -73 -2 -100 25 -25 114 -28 148 -4 30 21
30 76 0 104 -31 28 -115 28 -146 0z"/>
<path d="M17285 6613 c-50 -8 -85 -40 -85 -77 0 -58 19 -71 97 -69 74 3 96 -7
112 -48 22 -58 -49 -125 -102 -98 -28 14 -56 50 -57 70 0 9 -15 24 -34 34 -32
18 -35 18 -61 1 -14 -9 -31 -28 -37 -41 -24 -53 53 -165 138 -201 106 -44 235
14 284 128 68 159 -76 330 -255 301z"/>
<path d="M19018 12356 c-24 -18 -23 -25 17 -186 64 -259 156 -731 190 -970 66
-476 95 -1064 76 -1538 -24 -607 -68 -972 -187 -1542 -369 -1772 -1299 -3430
-2616 -4668 -1297 -1218 -2917 -2025 -4653 -2316 -480 -81 -837 -114 -1335
-123 -483 -9 -894 14 -1328 72 -1478 201 -2844 741 -4045 1599 -969 693 -1777
1558 -2414 2586 -341 551 -659 1233 -867 1855 -47 141 -44 138 -84 123 -18 -7
-32 -15 -32 -19 0 -20 149 -442 208 -589 589 -1469 1531 -2745 2741 -3714 886
-710 1866 -1235 2935 -1572 702 -221 1377 -349 2146 -406 230 -17 953 -17
1165 0 1161 94 2100 327 3100 769 989 438 1917 1076 2700 1858 989 989 1725
2171 2172 3490 263 778 415 1565 464 2409 15 262 6 978 -15 1226 -33 382 -86
739 -166 1130 -50 243 -129 540 -144 540 -6 0 -19 -7 -28 -14z"/>
<path d="M16573 12249 c-58 -22 -124 -83 -156 -143 -22 -40 -22 -50 -25 -555
-3 -582 -4 -573 73 -659 27 -30 66 -59 97 -73 l53 -24 520 0 520 0 42 23 c66
35 110 79 138 137 l25 54 0 521 0 521 -25 54 c-28 58 -72 102 -138 137 -42 23
-44 23 -557 25 -495 2 -517 2 -567 -18z m1064 -203 l28 -24 0 -492 0 -492 -28
-24 -28 -24 -480 0 c-325 0 -487 3 -501 11 -46 25 -48 49 -48 529 0 476 2 503
47 529 12 7 176 10 500 11 l482 0 28 -24z"/>
<path d="M17044 11969 l-29 -30 -3 -155 -4 -154 -148 0 c-145 0 -149 -1 -179
-26 -56 -47 -50 -126 11 -164 29 -17 51 -20 176 -20 l142 0 0 -135 c0 -95 4
-146 14 -170 15 -35 59 -65 96 -65 29 0 77 27 90 49 5 11 10 86 10 170 l0 151
139 0 c77 0 151 4 164 9 85 33 91 148 10 190 -13 7 -80 11 -167 11 l-146 0 0
154 c0 152 0 155 -26 185 -22 27 -33 31 -73 31 -40 0 -52 -5 -77 -31z"/>
<path d="M16552 10669 c-65 -32 -99 -66 -135 -133 -22 -41 -22 -44 -22 -571
l0 -530 25 -48 c29 -58 86 -112 149 -141 45 -20 60 -21 538 -24 415 -2 501 -1
543 12 87 26 145 76 186 161 l24 50 0 521 0 520 -26 52 c-14 28 -46 69 -70 91
-82 72 -76 71 -644 71 l-507 0 -61 -31z m1089 -197 l29 -32 0 -471 c0 -502 -1
-513 -49 -539 -13 -6 -188 -10 -496 -10 -524 0 -512 -1 -534 62 -7 20 -11 186
-11 480 0 371 3 455 15 484 27 64 25 64 548 61 l469 -2 29 -33z"/>
<path d="M16788 10304 c-49 -26 -72 -98 -47 -147 6 -12 57 -68 112 -124 l102
-103 -96 -97 c-53 -54 -104 -109 -113 -123 -26 -40 -21 -94 13 -132 26 -29 35
-33 80 -33 l51 0 113 113 112 112 100 -101 c55 -55 113 -107 129 -116 82 -43
188 48 156 133 -6 16 -59 77 -118 136 l-106 108 110 112 c67 69 114 124 118
141 9 39 -20 96 -62 120 -59 35 -91 20 -217 -103 l-111 -109 -100 100 c-130
132 -162 148 -226 113z"/>
<path d="M12835 10404 c-319 -47 -606 -219 -766 -459 -224 -336 -259 -680
-108 -1053 122 -301 402 -541 736 -629 82 -21 120 -26 238 -26 164 0 252 16
400 74 407 159 658 566 605 986 -12 99 -64 321 -79 336 -7 7 -809 -228 -822
-242 -9 -9 74 -281 86 -281 6 0 117 32 248 72 130 39 240 69 243 66 12 -13 4
-186 -12 -238 -62 -209 -211 -364 -419 -436 -70 -25 -95 -28 -205 -28 -144 -1
-230 19 -356 81 -206 102 -339 265 -406 498 -19 67 -23 103 -22 220 0 124 3
149 27 220 88 261 280 445 542 516 101 27 250 30 349 6 78 -20 213 -80 280
-126 l45 -31 15 22 c33 53 136 240 136 248 0 12 -148 92 -241 131 -125 52
-211 70 -354 74 -71 2 -143 1 -160 -1z"/>
<path d="M10695 9720 c-84 -17 -190 -47 -425 -119 -86 -26 -95 -31 -93 -52 1
-28 582 -1961 592 -1971 6 -7 286 74 298 85 3 3 -49 187 -116 408 -124 411
-125 419 -81 419 8 -1 197 -145 420 -320 222 -176 407 -320 410 -320 25 2 350
107 352 115 1 5 -191 156 -427 334 l-428 325 28 21 c64 46 126 104 154 142 97
134 134 287 107 443 -45 254 -202 437 -422 494 -83 21 -253 20 -369 -4z m333
-314 c124 -63 192 -259 139 -397 -26 -68 -109 -142 -210 -188 -80 -37 -204
-78 -210 -70 -6 8 -188 621 -185 624 5 3 190 53 218 59 14 2 63 3 110 2 69 -3
95 -8 138 -30z"/>
<path d="M8845 9210 c-304 -64 -536 -217 -702 -463 -123 -182 -182 -355 -190
-557 -15 -369 160 -734 447 -930 345 -235 766 -263 1142 -75 368 185 618 605
595 1004 -25 458 -317 840 -754 987 -168 57 -369 69 -538 34z m420 -314 c127
-41 219 -98 316 -195 127 -127 191 -255 225 -453 33 -190 -12 -383 -129 -558
-123 -185 -347 -309 -587 -327 -200 -14 -440 78 -588 226 -89 89 -148 191
-197 341 -25 76 -28 100 -29 225 -1 120 2 151 22 215 92 295 320 495 624 549
93 17 253 6 343 -23z"/>
<path d="M13718 6383 c-22 -6 -34 -40 -54 -151 -13 -73 -21 -96 -38 -107 -26
-17 -100 -28 -126 -20 -18 6 -76 114 -95 177 -12 39 -36 58 -72 58 -55 0 -115
-41 -99 -68 10 -18 16 -203 7 -221 -13 -23 -81 -51 -124 -50 -28 0 -40 10 -97
85 -82 108 -89 111 -146 84 -63 -31 -69 -47 -44 -117 12 -32 23 -65 25 -73 2
-8 8 -28 14 -43 21 -53 14 -74 -35 -112 -26 -19 -57 -35 -68 -35 -12 0 -61 29
-110 65 -48 36 -98 65 -110 65 -25 0 -96 -65 -96 -88 0 -15 105 -178 121 -188
17 -10 9 -40 -22 -88 -47 -71 -62 -73 -179 -26 -55 22 -109 40 -119 40 -23 0
-46 -26 -66 -74 l-16 -38 43 -42 c24 -23 65 -61 93 -83 43 -36 49 -47 47 -75
-2 -18 -14 -52 -28 -75 -29 -49 -37 -51 -182 -33 -98 13 -116 6 -133 -49 -20
-68 -11 -81 108 -141 108 -55 108 -55 111 -94 2 -22 -4 -58 -13 -82 l-16 -42
-87 -12 c-103 -14 -159 -27 -167 -40 -12 -19 -7 -112 6 -124 8 -7 63 -23 124
-35 60 -11 115 -27 122 -34 16 -16 28 -97 19 -132 -5 -18 -18 -31 -44 -42 -20
-8 -61 -26 -90 -39 -29 -13 -56 -24 -61 -24 -4 0 -16 -9 -26 -20 -20 -22 -15
-78 12 -118 14 -23 16 -24 142 -17 l128 7 27 -55 c40 -85 38 -93 -39 -151 -81
-61 -125 -105 -125 -127 0 -40 44 -99 74 -99 11 0 69 17 129 37 l109 38 25
-30 c33 -40 63 -88 63 -101 0 -6 -31 -53 -70 -104 -38 -51 -70 -101 -70 -111
0 -27 64 -89 92 -89 13 0 63 27 111 60 48 33 97 60 108 60 26 0 94 -48 110
-77 10 -19 6 -38 -30 -133 -47 -122 -46 -135 12 -170 55 -34 68 -27 153 71 74
84 81 90 111 85 44 -6 102 -35 113 -56 6 -11 4 -59 -4 -129 -14 -126 -12 -132
47 -156 66 -27 82 -15 138 102 35 72 57 106 72 112 28 11 116 -4 134 -22 8 -7
22 -64 33 -127 21 -130 29 -140 102 -140 55 0 72 18 82 85 3 22 7 49 10 60 2
11 7 39 11 63 4 28 15 48 30 58 25 16 132 22 145 8 4 -5 25 -49 46 -99 43
-104 62 -127 98 -127 66 -1 110 40 101 94 -2 13 -6 62 -10 109 -7 96 -8 95 65
122 67 25 85 22 117 -19 57 -73 114 -139 129 -147 18 -10 100 27 113 51 12 23
12 27 -5 69 -9 20 -18 46 -20 56 -2 11 -11 39 -20 63 -9 24 -14 54 -10 67 6
27 85 87 113 87 11 0 55 -27 99 -59 116 -87 125 -89 175 -41 36 34 40 43 34
67 -3 15 -13 35 -20 43 -30 34 -105 154 -105 167 0 16 54 90 79 109 17 14 43
7 160 -40 99 -40 115 -37 150 28 30 54 24 65 -75 147 -41 35 -80 71 -85 81
-13 24 35 135 63 144 11 3 66 0 124 -6 57 -7 111 -9 120 -6 19 7 44 67 44 106
0 28 -6 33 -105 81 -58 29 -110 58 -116 65 -16 19 -2 129 19 147 17 15 47 22
144 33 98 10 114 22 119 89 6 71 -6 79 -156 105 -98 17 -112 28 -120 94 -11
89 -12 88 172 166 30 13 55 30 58 41 8 24 -3 77 -21 106 -14 22 -17 23 -143
17 l-129 -7 -20 40 c-11 21 -23 55 -27 74 -7 36 -6 37 89 113 77 62 96 82 96
103 0 32 -38 91 -63 99 -9 3 -66 -11 -126 -32 -59 -20 -115 -34 -125 -31 -19
8 -79 90 -82 114 -2 9 28 59 67 111 38 52 69 102 69 112 0 26 -63 90 -89 90
-23 0 -42 -10 -141 -81 -36 -25 -73 -45 -82 -43 -25 3 -95 56 -109 81 -10 18
-5 38 30 128 23 59 41 114 39 123 -5 27 -83 75 -110 69 -12 -4 -57 -45 -98
-93 -70 -81 -76 -86 -107 -81 -44 7 -102 36 -112 56 -8 13 -2 97 14 216 5 41
-27 67 -97 79 -35 6 -52 -15 -108 -134 -39 -82 -46 -90 -76 -96 -19 -3 -52 0
-76 7 -49 16 -63 38 -73 114 -11 86 -16 119 -21 138 -9 30 -71 45 -126 30z
m221 -508 c276 -48 538 -185 731 -384 34 -34 141 -174 167 -216 44 -73 127
-259 138 -310 1 -5 7 -28 13 -50 6 -22 14 -56 17 -75 3 -19 9 -60 14 -90 14
-81 6 -314 -13 -400 -24 -111 -73 -256 -114 -335 -103 -202 -275 -395 -452
-507 -103 -65 -252 -137 -320 -154 -115 -28 -202 -45 -271 -51 -79 -8 -284 -1
-339 11 -14 3 -38 8 -55 12 -169 34 -374 131 -525 248 -140 108 -292 295 -363
446 -27 57 -66 154 -73 180 -48 179 -54 221 -59 375 -7 252 61 486 214 737 57
93 250 287 351 353 172 113 364 188 535 211 28 3 51 7 53 9 12 11 275 3 351
-10z"/>
<path d="M13570 5850 c-25 -4 -65 -11 -90 -15 -25 -4 -92 -23 -150 -42 -326
-110 -579 -330 -734 -639 -121 -242 -159 -536 -105 -807 19 -93 91 -300 123
-349 8 -13 25 -42 38 -66 75 -136 267 -329 412 -414 138 -81 318 -148 466
-174 94 -16 339 -16 415 1 103 22 245 64 281 83 10 6 44 23 74 38 85 42 90 45
175 106 44 31 119 96 165 145 308 320 424 759 315 1193 -58 228 -163 410 -335
580 -181 179 -390 292 -640 346 -83 18 -338 27 -410 14z m295 -971 c84 -40
154 -124 172 -207 9 -41 6 -135 -6 -178 -15 -52 -72 -128 -119 -158 -195 -123
-429 -33 -486 186 -37 142 30 285 167 354 26 13 47 22 47 19 0 -3 8 -2 18 4
31 18 152 7 207 -20z"/>
</g>
</svg>
